<mxfile host="app.diagrams.net" agent="Mozilla/5.0 (Windows NT 10.0; Win64; x64) AppleWebKit/537.36 (KHTML, like Gecko) Chrome/139.0.0.0 Safari/537.36 Edg/139.0.0.0" version="28.1.1">
  <diagram name="Page-1" id="ggJ9fAbBDPgAVQWhxpTq">
    <mxGraphModel dx="1152" dy="643" grid="1" gridSize="10" guides="1" tooltips="1" connect="1" arrows="1" fold="1" page="1" pageScale="1" pageWidth="850" pageHeight="1100" math="0" shadow="0">
      <root>
        <mxCell id="0" />
        <mxCell id="1" parent="0" />
        <mxCell id="V-uJ7n7HiBD3K4Kd4qcR-2" value="Student Information System" style="rounded=0;whiteSpace=wrap;html=1;fillColor=#f8cecc;strokeColor=#b85450;align=center;fontStyle=1;fontSize=19;" vertex="1" parent="1">
          <mxGeometry x="230" y="20" width="400" height="50" as="geometry" />
        </mxCell>
        <mxCell id="V-uJ7n7HiBD3K4Kd4qcR-3" value="Admin" style="rounded=0;whiteSpace=wrap;html=1;fontSize=15;fillColor=#f8cecc;strokeColor=#b85450;fontStyle=1" vertex="1" parent="1">
          <mxGeometry x="40" y="110" width="150" height="40" as="geometry" />
        </mxCell>
        <mxCell id="V-uJ7n7HiBD3K4Kd4qcR-4" value="Login to System" style="ellipse;whiteSpace=wrap;html=1;aspect=fixed;fontSize=13;fontStyle=1;fillColor=#f8cecc;strokeColor=#b85450;" vertex="1" parent="1">
          <mxGeometry x="250" y="90" width="90" height="90" as="geometry" />
        </mxCell>
        <mxCell id="V-uJ7n7HiBD3K4Kd4qcR-5" value="Forget Password" style="ellipse;whiteSpace=wrap;html=1;aspect=fixed;fillColor=#f8cecc;strokeColor=#b85450;fontSize=13;fontStyle=1" vertex="1" parent="1">
          <mxGeometry x="65" y="220" width="90" height="90" as="geometry" />
        </mxCell>
        <mxCell id="V-uJ7n7HiBD3K4Kd4qcR-6" value="Send Email&amp;nbsp;&lt;div&gt;to User&lt;/div&gt;" style="ellipse;whiteSpace=wrap;html=1;aspect=fixed;fontSize=13;fontStyle=1;fillColor=#f8cecc;strokeColor=#b85450;" vertex="1" parent="1">
          <mxGeometry x="65" y="360" width="90" height="90" as="geometry" />
        </mxCell>
        <mxCell id="V-uJ7n7HiBD3K4Kd4qcR-7" value="Manage System Admins" style="rounded=0;whiteSpace=wrap;html=1;fillColor=#f8cecc;strokeColor=#b85450;fontSize=13;fontStyle=1" vertex="1" parent="1">
          <mxGeometry x="40" y="520" width="150" height="50" as="geometry" />
        </mxCell>
        <mxCell id="V-uJ7n7HiBD3K4Kd4qcR-8" value="Check Credentials" style="ellipse;whiteSpace=wrap;html=1;aspect=fixed;fontSize=13;fontStyle=1;fillColor=#f8cecc;strokeColor=#b85450;" vertex="1" parent="1">
          <mxGeometry x="250" y="220" width="90" height="90" as="geometry" />
        </mxCell>
        <mxCell id="V-uJ7n7HiBD3K4Kd4qcR-9" value="Check&lt;div&gt;Roles of&lt;/div&gt;&lt;div&gt;Access&lt;/div&gt;" style="ellipse;whiteSpace=wrap;html=1;aspect=fixed;fillColor=#f8cecc;strokeColor=#b85450;fontSize=13;fontStyle=1" vertex="1" parent="1">
          <mxGeometry x="425" y="80" width="90" height="90" as="geometry" />
        </mxCell>
        <mxCell id="V-uJ7n7HiBD3K4Kd4qcR-10" value="Manage Modules" style="ellipse;whiteSpace=wrap;html=1;aspect=fixed;fontSize=13;fontStyle=1;fillColor=#f8cecc;strokeColor=#b85450;" vertex="1" parent="1">
          <mxGeometry x="425" y="220" width="90" height="90" as="geometry" />
        </mxCell>
        <mxCell id="V-uJ7n7HiBD3K4Kd4qcR-11" value="Manage Timetable&amp;nbsp;&lt;div&gt;Details&lt;/div&gt;" style="rounded=0;whiteSpace=wrap;html=1;fillColor=#f8cecc;strokeColor=#b85450;fontSize=13;fontStyle=1" vertex="1" parent="1">
          <mxGeometry x="620" y="90" width="170" height="50" as="geometry" />
        </mxCell>
        <mxCell id="V-uJ7n7HiBD3K4Kd4qcR-12" value="Manage Attendance&lt;div&gt;Details&lt;/div&gt;" style="rounded=0;whiteSpace=wrap;html=1;fontSize=13;fontStyle=1;fillColor=#f8cecc;strokeColor=#b85450;" vertex="1" parent="1">
          <mxGeometry x="620" y="150" width="170" height="50" as="geometry" />
        </mxCell>
        <mxCell id="V-uJ7n7HiBD3K4Kd4qcR-13" value="Manage Class&amp;nbsp;&lt;div&gt;Details&lt;/div&gt;" style="rounded=0;whiteSpace=wrap;html=1;fillColor=#f8cecc;strokeColor=#b85450;fontSize=13;fontStyle=1" vertex="1" parent="1">
          <mxGeometry x="620" y="210" width="170" height="50" as="geometry" />
        </mxCell>
        <mxCell id="V-uJ7n7HiBD3K4Kd4qcR-14" value="Manage Student&lt;div&gt;Details&lt;/div&gt;" style="rounded=0;whiteSpace=wrap;html=1;fontSize=13;fontStyle=1;fillColor=#f8cecc;strokeColor=#b85450;" vertex="1" parent="1">
          <mxGeometry x="620" y="270" width="170" height="50" as="geometry" />
        </mxCell>
        <mxCell id="V-uJ7n7HiBD3K4Kd4qcR-15" value="Manage Fees&lt;div&gt;Detains&lt;/div&gt;" style="rounded=0;whiteSpace=wrap;html=1;fillColor=#f8cecc;strokeColor=#b85450;fontSize=13;fontStyle=1" vertex="1" parent="1">
          <mxGeometry x="620" y="330" width="170" height="50" as="geometry" />
        </mxCell>
        <mxCell id="V-uJ7n7HiBD3K4Kd4qcR-16" value="Manage Teacher&amp;nbsp;&lt;div&gt;Profiles&lt;/div&gt;" style="rounded=0;whiteSpace=wrap;html=1;fillColor=#f8cecc;strokeColor=#b85450;fontSize=13;fontStyle=1" vertex="1" parent="1">
          <mxGeometry x="620" y="390" width="170" height="60" as="geometry" />
        </mxCell>
        <mxCell id="V-uJ7n7HiBD3K4Kd4qcR-18" value="Manage&amp;nbsp;&lt;div&gt;Reports&lt;/div&gt;" style="rounded=0;whiteSpace=wrap;html=1;fontSize=13;fontStyle=1;fillColor=#f8cecc;strokeColor=#b85450;" vertex="1" parent="1">
          <mxGeometry x="620" y="460" width="170" height="50" as="geometry" />
        </mxCell>
        <mxCell id="V-uJ7n7HiBD3K4Kd4qcR-19" value="Manage User&amp;nbsp;&lt;div&gt;Permission&lt;/div&gt;" style="rounded=0;whiteSpace=wrap;html=1;fontSize=13;fontStyle=1;fillColor=#f8cecc;strokeColor=#b85450;" vertex="1" parent="1">
          <mxGeometry x="390" y="520" width="150" height="50" as="geometry" />
        </mxCell>
        <mxCell id="V-uJ7n7HiBD3K4Kd4qcR-20" value="Manage Roles&lt;div&gt;Of User&lt;/div&gt;" style="rounded=0;whiteSpace=wrap;html=1;fillColor=#f8cecc;strokeColor=#b85450;fontSize=13;fontStyle=1" vertex="1" parent="1">
          <mxGeometry x="210" y="520" width="160" height="50" as="geometry" />
        </mxCell>
        <mxCell id="V-uJ7n7HiBD3K4Kd4qcR-22" value="" style="endArrow=classic;html=1;rounded=0;strokeWidth=2;exitX=1;exitY=0.5;exitDx=0;exitDy=0;" edge="1" parent="1" source="V-uJ7n7HiBD3K4Kd4qcR-3">
          <mxGeometry width="50" height="50" relative="1" as="geometry">
            <mxPoint x="190" y="130" as="sourcePoint" />
            <mxPoint x="250" y="130" as="targetPoint" />
            <Array as="points">
              <mxPoint x="220" y="130" />
            </Array>
          </mxGeometry>
        </mxCell>
        <mxCell id="V-uJ7n7HiBD3K4Kd4qcR-23" value="" style="endArrow=classic;html=1;rounded=0;exitX=0.5;exitY=1;exitDx=0;exitDy=0;entryX=0.5;entryY=0;entryDx=0;entryDy=0;strokeWidth=2;" edge="1" parent="1" source="V-uJ7n7HiBD3K4Kd4qcR-4" target="V-uJ7n7HiBD3K4Kd4qcR-8">
          <mxGeometry width="50" height="50" relative="1" as="geometry">
            <mxPoint x="450" y="330" as="sourcePoint" />
            <mxPoint x="500" y="280" as="targetPoint" />
          </mxGeometry>
        </mxCell>
        <mxCell id="V-uJ7n7HiBD3K4Kd4qcR-24" value="" style="endArrow=classic;html=1;rounded=0;entryX=0;entryY=0.5;entryDx=0;entryDy=0;strokeWidth=2;exitX=1;exitY=0;exitDx=0;exitDy=0;" edge="1" parent="1" source="V-uJ7n7HiBD3K4Kd4qcR-8" target="V-uJ7n7HiBD3K4Kd4qcR-9">
          <mxGeometry width="50" height="50" relative="1" as="geometry">
            <mxPoint x="350" y="240" as="sourcePoint" />
            <mxPoint x="500" y="280" as="targetPoint" />
          </mxGeometry>
        </mxCell>
        <mxCell id="V-uJ7n7HiBD3K4Kd4qcR-25" value="" style="endArrow=classic;html=1;rounded=0;exitX=0.448;exitY=1.075;exitDx=0;exitDy=0;entryX=0.5;entryY=0;entryDx=0;entryDy=0;exitPerimeter=0;strokeWidth=2;" edge="1" parent="1" source="V-uJ7n7HiBD3K4Kd4qcR-3" target="V-uJ7n7HiBD3K4Kd4qcR-5">
          <mxGeometry width="50" height="50" relative="1" as="geometry">
            <mxPoint x="450" y="330" as="sourcePoint" />
            <mxPoint x="500" y="280" as="targetPoint" />
          </mxGeometry>
        </mxCell>
        <mxCell id="V-uJ7n7HiBD3K4Kd4qcR-26" value="" style="endArrow=classic;html=1;rounded=0;exitX=0.5;exitY=1;exitDx=0;exitDy=0;entryX=0.5;entryY=0;entryDx=0;entryDy=0;strokeWidth=2;" edge="1" parent="1" source="V-uJ7n7HiBD3K4Kd4qcR-5" target="V-uJ7n7HiBD3K4Kd4qcR-6">
          <mxGeometry width="50" height="50" relative="1" as="geometry">
            <mxPoint x="450" y="330" as="sourcePoint" />
            <mxPoint x="500" y="280" as="targetPoint" />
          </mxGeometry>
        </mxCell>
        <mxCell id="V-uJ7n7HiBD3K4Kd4qcR-27" value="" style="endArrow=classic;html=1;rounded=0;exitX=0.5;exitY=1;exitDx=0;exitDy=0;entryX=0.5;entryY=0;entryDx=0;entryDy=0;entryPerimeter=0;strokeWidth=2;" edge="1" parent="1" source="V-uJ7n7HiBD3K4Kd4qcR-9" target="V-uJ7n7HiBD3K4Kd4qcR-10">
          <mxGeometry width="50" height="50" relative="1" as="geometry">
            <mxPoint x="450" y="330" as="sourcePoint" />
            <mxPoint x="465" y="210" as="targetPoint" />
          </mxGeometry>
        </mxCell>
        <mxCell id="V-uJ7n7HiBD3K4Kd4qcR-30" value="" style="endArrow=classic;html=1;rounded=0;strokeWidth=2;entryX=0.446;entryY=-0.007;entryDx=0;entryDy=0;entryPerimeter=0;exitX=0.27;exitY=0.944;exitDx=0;exitDy=0;exitPerimeter=0;" edge="1" parent="1" source="V-uJ7n7HiBD3K4Kd4qcR-10" target="V-uJ7n7HiBD3K4Kd4qcR-20">
          <mxGeometry width="50" height="50" relative="1" as="geometry">
            <mxPoint x="440" y="300" as="sourcePoint" />
            <mxPoint x="290" y="510" as="targetPoint" />
          </mxGeometry>
        </mxCell>
        <mxCell id="V-uJ7n7HiBD3K4Kd4qcR-31" value="" style="endArrow=classic;html=1;rounded=0;entryX=0.5;entryY=0;entryDx=0;entryDy=0;exitX=0.5;exitY=1;exitDx=0;exitDy=0;strokeWidth=2;" edge="1" parent="1" source="V-uJ7n7HiBD3K4Kd4qcR-10" target="V-uJ7n7HiBD3K4Kd4qcR-19">
          <mxGeometry width="50" height="50" relative="1" as="geometry">
            <mxPoint x="465" y="310" as="sourcePoint" />
            <mxPoint x="500" y="280" as="targetPoint" />
          </mxGeometry>
        </mxCell>
        <mxCell id="V-uJ7n7HiBD3K4Kd4qcR-32" value="" style="endArrow=classic;html=1;rounded=0;exitX=0;exitY=1;exitDx=0;exitDy=0;strokeWidth=2;entryX=0.5;entryY=0;entryDx=0;entryDy=0;" edge="1" parent="1" source="V-uJ7n7HiBD3K4Kd4qcR-10" target="V-uJ7n7HiBD3K4Kd4qcR-7">
          <mxGeometry width="50" height="50" relative="1" as="geometry">
            <mxPoint x="450" y="330" as="sourcePoint" />
            <mxPoint x="120" y="510" as="targetPoint" />
          </mxGeometry>
        </mxCell>
        <mxCell id="V-uJ7n7HiBD3K4Kd4qcR-33" value="" style="endArrow=classic;html=1;rounded=0;entryX=0;entryY=0.5;entryDx=0;entryDy=0;exitX=1;exitY=0;exitDx=0;exitDy=0;strokeWidth=2;" edge="1" parent="1" source="V-uJ7n7HiBD3K4Kd4qcR-10" target="V-uJ7n7HiBD3K4Kd4qcR-11">
          <mxGeometry width="50" height="50" relative="1" as="geometry">
            <mxPoint x="450" y="330" as="sourcePoint" />
            <mxPoint x="500" y="280" as="targetPoint" />
          </mxGeometry>
        </mxCell>
        <mxCell id="V-uJ7n7HiBD3K4Kd4qcR-34" value="" style="endArrow=classic;html=1;rounded=0;entryX=0;entryY=0.5;entryDx=0;entryDy=0;exitX=0.967;exitY=0.248;exitDx=0;exitDy=0;exitPerimeter=0;strokeWidth=2;" edge="1" parent="1" source="V-uJ7n7HiBD3K4Kd4qcR-10" target="V-uJ7n7HiBD3K4Kd4qcR-12">
          <mxGeometry width="50" height="50" relative="1" as="geometry">
            <mxPoint x="450" y="330" as="sourcePoint" />
            <mxPoint x="500" y="280" as="targetPoint" />
          </mxGeometry>
        </mxCell>
        <mxCell id="V-uJ7n7HiBD3K4Kd4qcR-35" value="" style="endArrow=classic;html=1;rounded=0;entryX=0;entryY=0.5;entryDx=0;entryDy=0;exitX=0.937;exitY=0.707;exitDx=0;exitDy=0;strokeWidth=2;exitPerimeter=0;" edge="1" parent="1" source="V-uJ7n7HiBD3K4Kd4qcR-10" target="V-uJ7n7HiBD3K4Kd4qcR-15">
          <mxGeometry width="50" height="50" relative="1" as="geometry">
            <mxPoint x="450" y="330" as="sourcePoint" />
            <mxPoint x="500" y="280" as="targetPoint" />
          </mxGeometry>
        </mxCell>
        <mxCell id="V-uJ7n7HiBD3K4Kd4qcR-36" value="" style="endArrow=classic;html=1;rounded=0;entryX=0;entryY=0.5;entryDx=0;entryDy=0;strokeWidth=2;exitX=1;exitY=0.5;exitDx=0;exitDy=0;" edge="1" parent="1" source="V-uJ7n7HiBD3K4Kd4qcR-10" target="V-uJ7n7HiBD3K4Kd4qcR-14">
          <mxGeometry width="50" height="50" relative="1" as="geometry">
            <mxPoint x="520" y="270" as="sourcePoint" />
            <mxPoint x="500" y="280" as="targetPoint" />
          </mxGeometry>
        </mxCell>
        <mxCell id="V-uJ7n7HiBD3K4Kd4qcR-37" value="" style="endArrow=classic;html=1;rounded=0;entryX=0;entryY=0.5;entryDx=0;entryDy=0;strokeWidth=2;exitX=0.967;exitY=0.322;exitDx=0;exitDy=0;exitPerimeter=0;" edge="1" parent="1" source="V-uJ7n7HiBD3K4Kd4qcR-10" target="V-uJ7n7HiBD3K4Kd4qcR-13">
          <mxGeometry width="50" height="50" relative="1" as="geometry">
            <mxPoint x="520" y="253" as="sourcePoint" />
            <mxPoint x="500" y="280" as="targetPoint" />
          </mxGeometry>
        </mxCell>
        <mxCell id="V-uJ7n7HiBD3K4Kd4qcR-38" value="" style="endArrow=classic;html=1;rounded=0;entryX=0;entryY=0.5;entryDx=0;entryDy=0;strokeWidth=2;" edge="1" parent="1" source="V-uJ7n7HiBD3K4Kd4qcR-10" target="V-uJ7n7HiBD3K4Kd4qcR-16">
          <mxGeometry width="50" height="50" relative="1" as="geometry">
            <mxPoint x="450" y="330" as="sourcePoint" />
            <mxPoint x="500" y="280" as="targetPoint" />
          </mxGeometry>
        </mxCell>
        <mxCell id="V-uJ7n7HiBD3K4Kd4qcR-39" value="" style="endArrow=classic;html=1;rounded=0;entryX=0;entryY=0.5;entryDx=0;entryDy=0;exitX=0.722;exitY=1;exitDx=0;exitDy=0;exitPerimeter=0;strokeWidth=2;" edge="1" parent="1" source="V-uJ7n7HiBD3K4Kd4qcR-10" target="V-uJ7n7HiBD3K4Kd4qcR-18">
          <mxGeometry width="50" height="50" relative="1" as="geometry">
            <mxPoint x="450" y="330" as="sourcePoint" />
            <mxPoint x="500" y="280" as="targetPoint" />
          </mxGeometry>
        </mxCell>
      </root>
    </mxGraphModel>
  </diagram>
</mxfile>
